<?xml version="1.0" encoding="iso-8859-1"?>
<!-- Generator: Adobe Illustrator 24.0.1, SVG Export Plug-In . SVG Version: 6.00 Build 0)  -->
<svg version="1.1" id="Layer_2" xmlns="http://www.w3.org/2000/svg" xmlns:xlink="http://www.w3.org/1999/xlink" x="0px" y="0px"
	 viewBox="0 0 110 114" style="enable-background:new 0 0 110 114;" xml:space="preserve">
<path style="fill:#120000;" d="M847.665-331.84c-12.361,6.774-26.682,9.619-40.7,7.756c-14.395-1.913-26.768-9.514-39.734-15.446
	c-13.26-6.065-27.354-9.021-41.27-8.296c1.442-8.86-0.179-18.724-7.986-24.083c-11.268-7.735-29.844-2.602-41.328,2.252
	c-3.06,1.293-6,2.786-8.821,4.448c0.877-2.221,1.755-4.441,2.609-6.671c1.563-4.08-3.254-8.864-7.323-7.323
	c-15.999,6.059-32.611,10.467-49.552,12.89c-0.066-0.222-0.126-0.444-0.197-0.665c-1.145-3.581-4.514-4.641-7.36-3.922
	c-0.677-0.853-1.646-1.544-2.954-1.936c-12.53-3.754-24.342,1.982-32.438,11.206c-13.479,12.515-26.745,25.518-40.935,37.129
	c-2.495,2.041-7.772,5.038-11.868,5.189c-1.269-2.011,0.06-5.576,0.551-7.689c0.885-3.811,1.922-7.588,3.092-11.321
	c2.177-6.951,4.808-13.755,7.843-20.376c6.214-13.558,13.792-26.44,21.832-38.984c3.669-5.724,7.444-11.379,11.245-17.016
	c14.37-1.003,28.749-1.866,43.138-2.575c7.626-0.376,7.671-12.284,0-11.906c-11.575,0.57-23.143,1.247-34.706,2.007
	c1.802-2.664,3.604-5.33,5.39-8.005c3.788-5.673,9.164-12.115,7.82-19.428c-1.213-6.606-7.552-11.118-14.134-9.289
	c-2.56,0.711-3.851,2.562-4.139,4.588c-7.072,11.266-14.036,22.598-20.883,34.001c-15.766,1.232-31.52,2.63-47.256,4.216
	c-7.551,0.761-7.63,12.675,0,11.906c13.262-1.336,26.536-2.545,39.819-3.63c-6.952,11.768-14.091,23.547-20.372,35.725
	c-7.382,9.892-15.359,19.334-24.153,28.123c-12.933,12.925-32.842,29.744-52.76,25.215c-0.893-4.167-1.145-8.406-0.808-12.584
	c6.507-2.282,12.578-5.719,18.024-10.253c7.246-6.033,21.51-21.669,15.068-31.856c-7.052-11.153-23.822-4.152-31.436,2.183
	c-9.187,7.643-17.91,19.168-22.002,30.564c-10.294,9.682-21.661,18.356-34.078,25.145c-1.657,0.906-3.501,1.858-5.436,2.678
	c-4.61,0.062-9.049-1.34-11.077-5.373c-2.774-5.518,1.166-12.982,3.352-18c0.555-1.273,1.124-2.539,1.694-3.805
	c4.682-3.017,9.248-6.233,13.69-9.613c11.895-9.049,23.154-19,33.559-29.732c10.106-10.422,20.306-22.894,23.734-37.352
	c1.529-6.449,0.165-15.06-4.279-19.813c-0.55-3.549-4.619-7.031-9.066-5.138c-31.762,13.516-53.091,42.4-68.358,72.269
	c-4.063,7.95-7.941,16.041-11.414,24.268c-0.722,1.711-1.402,3.447-2.017,5.204c-8.517,4.181-17.389,7.563-26.567,9.883
	c0.217-0.865,0.411-1.732,0.557-2.6c2.004-11.936-4.039-22.272-15.313-26.54c-1.525-0.577-3.055-1.005-4.587-1.305
	c-4.115-1.691-8.889-2.227-13.916-1.407c-0.141,0.023-0.281,0.053-0.422,0.077c8.975-10.092,17.591-20.588,25.38-31.582
	c10.381-14.652,18.209-31.413,15.017-49.718c-0.29-1.661-1.33-2.819-2.657-3.508c-1.27-1.775-3.079-3.189-5.418-3.927
	c-5.156-1.625-10.066,0.86-12.649,4.994c-10.612,7.815-19.184,17.905-27.131,28.472c-10.25,13.629-19.632,27.922-28.122,42.71
	c-8.522,14.843-16.103,30.204-22.771,45.966c-0.85,2.008-2.134,4.431-3.299,6.999c-5.198,2.952-12.787,6.669-14.237,4.236
	c-1.288-2.161,1.625-7.928,2.433-9.933c1.052-2.611,2.333-5.111,3.737-7.541c0.725-0.728,1.443-1.465,2.145-2.218
	c1.257-1.348,1.724-2.861,1.635-4.301c0.916-3.257-1.654-6.091-4.73-6.792c-7.552-10.938-21.535-11.725-32.842-6.341
	c-0.251,0.119-0.495,0.258-0.744,0.383c-11.495,3.52-22.747,10.579-31.129,16.442c-19.915,13.93-36.589,31.702-53.577,48.925
	c-8.568,8.686-17.257,17.276-26.557,25.184c-4.212,3.582-8.517,7.182-13.125,10.246c-0.066,0.044-0.386,0.205-0.782,0.426
	c20.793-51.783,57.781-94.521,94.38-136.094c12.194-1.294,24.407-2.423,36.635-3.381c7.589-0.595,7.653-12.506,0-11.906
	c-8.385,0.657-16.762,1.397-25.131,2.212c0.358-0.408,0.717-0.816,1.074-1.224c4.851-5.535,13.297-12.371,13.979-20.175
	c0.947-10.844-10.961-11.556-18.37-8.031c-0.118,0.056-0.224,0.12-0.335,0.18c-0.663,0.301-1.285,0.775-1.824,1.457
	c-8.174,10.328-16.339,20.668-24.447,31.05c-16.086,1.927-32.14,4.128-48.151,6.622c-7.548,1.175-4.343,12.65,3.165,11.481
	c11.188-1.742,22.398-3.325,33.625-4.774c-14.568,16.256-30.207,31.56-46.989,45.176c-26.542,21.535-60.737,37.905-94.867,25.145
	c-15.298-5.72-28.41-17.382-32.937-33.383c-2.082-7.361-13.574-4.233-11.481,3.165c9.393,33.203,46.825,50.23,79.3,46.284
	c25.733-3.127,48.247-16.156,68.296-32.464c-3.602,5.193-7.167,10.412-10.658,15.68c-8.095,12.218-16.02,24.623-21.754,38.158
	c-2.66,6.279-8.172,18.403-7.217,27.473c-0.606,2.179,0.118,3.941,1.469,5.096c0.862,1.611,2.111,2.998,3.852,4.063
	c6.11,3.739,12.623-0.053,17.634-3.72c5.097-3.73,10.031-7.69,14.805-11.825c19.227-16.656,35.871-36,54.568-53.216
	c6.697-6.166,13.679-12.022,21.097-17.27c-0.042,0.428-0.068,0.86-0.076,1.297c-0.089,5.442,2.351,11.041,7.263,13.726
	c6.257,3.421,13.746,0.778,19.905-1.537c5.147-1.934,10.082-4.312,14.764-7.095c-0.609,5.558,0.703,10.649,5.672,13.898
	c5.684,3.716,12.814,1.599,18.751-0.851c0.092,0.177,0.189,0.353,0.296,0.525c0.646,1.037,1.407,1.804,2.231,2.349
	c2.823,2.43,7.166,2.752,10.548,1.197c4.287-1.971,6.042-5.966,7.558-10.109c1.972-3.634,3.944-7.267,5.927-10.895
	c0.656-0.289,1.297-0.72,1.9-1.335c6.117-6.238,13.107-12.483,20.76-17.294c0.821,0.001,1.68-0.166,2.554-0.541
	c7.132-3.064,15.344-6.704,23.289-5.297c3.76,2.546,4.576,7.437,4.215,11.777c-0.178,2.135-0.654,4.297-1.36,6.419
	c-7.871,0.324-15.503,2.197-22.47,5.934c-5.52,2.961-12.145,7.585-12.592,14.402c-0.015,0.175-0.023,0.35-0.024,0.527
	c-0.002,0.12-0.018,0.235-0.016,0.356c0.108,7.781,8.032,10.429,14.597,9.991c12.716,1.962,25.705-6.045,33.48-17.192
	c10.344-1.867,20.345-4.941,29.959-8.998c-0.022,1.51,0.056,3.029,0.255,4.557c2.227,17.09,17.466,25.759,33.601,20.554
	c0.616-0.199,1.228-0.412,1.838-0.634c1.469-0.084,2.929-0.256,4.359-0.525c13.293-2.502,21.879-13.192,31.785-21.568
	c1.974,6.12,6.418,11.29,13.121,14.19c11.37,4.919,24.601,2.853,35.708-1.776c13.463-5.612,25.267-14.932,35.758-25.668
	c-1.811,7.166-3.917,15.999-1.539,23.065c2.189,6.506,8.577,10.285,15.125,10.997c7.702,0.837,14.49-2.841,20.329-7.514
	c7.396-5.919,14.228-12.657,21.205-19.085c-0.864,7.457,0.79,14.71,7.3,19.776c12.547,9.762,28.011-1.565,36.302-11.407
	c6.929-8.224,12.472-18.263,13.22-28.845c10.208-1.482,20.267-3.549,30.169-6.254c-10.469,30.748-25.53,59.646-40.185,88.578
	c-4.143,8.18-8.287,16.36-12.43,24.54c-2.071,4.089-4.192,8.157-6.215,12.27c-1.692,3.44-2.484,6.664,0.406,9.853
	c3.988,4.4,9.694,2.868,13.141-0.811c1.163-0.403,2.221-1.263,2.976-2.703c19.483-37.153,38.905-74.407,55.544-112.916
	c11.679-13.414,30.615-23.445,48.365-21.506c9.107,0.995,8.852,10.458,6.761,17.404c-7.411,1.632-14.682,4.385-21.649,8.369
	c-8.738,4.997-24.483,15.841-18.601,28.003c6.468,13.373,22.628,2.896,30.173-3.248c7.375-6.006,14.341-13.887,18.682-22.703
	c9.622-1.358,19.502-0.557,28.765,2.359c10.698,3.368,20.36,9.225,30.573,13.746c23.596,10.445,49.471,10.591,72.37-1.958
	C860.396-325.243,854.394-335.528,847.665-331.84z M460.747-371.152c0.245-0.145,0.466-0.3,0.677-0.461
	c-0.038,0.205-0.071,0.442-0.097,0.725c-1.422,1.863-2.246,4.351-3.578,6.332c-1.618,2.406-3.504,4.588-5.572,6.62
	c-2.748,2.701-5.828,5.033-9.142,6.949C446.672-359.244,452.753-366.428,460.747-371.152z M400.563-394.118
	c7.291-10.988,15.204-21.545,23.744-31.594c1.777-2.091,3.91-5.608,6.387-6.93c1.568-0.837,1.065-0.76,1.898,0.604
	c2.33,3.813-0.428,10.309-1.916,13.77c-4.925,11.456-13.645,20.846-22.418,29.482c-7.491,7.375-15.309,14.476-23.545,21.025
	C389.607-376.773,394.892-385.572,400.563-394.118z M192.303-334.127c-3.177,1.722-20.075,10.764-21.121,4.706
	c-0.67-3.881,3.269-7.171,5.821-9.419c3.383-2.98,6.991-5.862,10.845-8.21c0.555-0.338,1.149-0.673,1.773-0.995
	c6.85-1.997,13.809-2.227,19.046,2.093C203.728-341.349,198.301-337.378,192.303-334.127z M273.176-367.063
	c3.356-5.853,6.748-11.685,10.186-17.491c6.58-11.112,13.276-22.174,20.299-33.013c4.243-6.548,8.802-12.933,14.589-18.009
	c-1.345,12.992-9.521,25.103-17.136,35.271C292.443-388.729,283.035-377.661,273.176-367.063z M288.382-317.917
	c-1.596,0.73-3.3,0.825-4.932,1.079c-0.091-0.023-0.182-0.054-0.273-0.079c0.593-0.482,1.175-0.999,1.692-1.316
	c3.242-1.987,6.7-3.414,10.301-4.341C293.124-320.65,290.842-319.043,288.382-317.917z M595.745-337.461
	c-3.878,5.496-14.021,18.097-22.066,14.385c-9.368-4.322-1.021-20.256,2.407-25.95c0.919-1.526,1.966-3.012,3.124-4.403
	c1.78-1.621,3.56-3.242,5.341-4.863c0.173-0.157,0.331-0.318,0.479-0.481c4.285-2.888,9.357-4.23,14.856-2.583
	c0.965,0.289,1.855,0.338,2.661,0.207C604.175-352.658,600.717-344.508,595.745-337.461z M696.097-322.444
	c-1.999,1.686-9.552,8.583-12.599,7.265c0.588,0.254,1.772-2.69,2.634-3.684c1.796-2.071,4.126-3.752,6.366-5.317
	c3.784-2.645,7.843-4.858,12.073-6.666C701.943-327.746,699.025-324.915,696.097-322.444z"/>
<g id="day">
	<path style="fill:#120000;" d="M224.789-277.011c-11.897-7.126-26.257-5.923-39.437-4.39c-1.591,0.185-2.846,0.868-3.769,1.816
		c-1.131,0.415-2.157,1.268-2.891,2.682l-27.733,53.379c-3.528,6.791,6.743,12.818,10.281,6.009
		c9.065-17.448,18.13-34.896,27.196-52.345c9.18-1.087,19.277-2.109,27.78,1.756c7.542,3.428,14.006,11.22,10.725,19.813
		c-3.137,8.216-12.189,13.33-19.807,16.629c-10.182,4.409-21.156,6.421-32.219,6.384c-7.662-0.025-7.673,11.881,0,11.906
		c14.134,0.047,28.012-3.015,40.75-9.163c10.352-4.997,20.971-13.49,23.514-25.298C241.752-259.793,234.872-270.972,224.789-277.011
		z"/>
	<path style="fill:#120000;" d="M369.653-213.733c-0.091,0.009,0.179,0.398-0.507-0.411c-0.495-0.584-0.694-1.601-0.907-2.312
		c-0.661-2.207-0.956-4.579-1.363-6.843c-0.968-5.384-1.777-10.794-2.394-16.229c-0.067-0.592-0.125-1.185-0.188-1.777
		c0.076-0.007,0.153-0.014,0.229-0.021c7.569-0.688,7.641-12.6,0-11.906c-0.41,0.037-0.819,0.074-1.229,0.112
		c-0.37-5.862-0.564-11.734-0.586-17.612c-0.012-3.182-2.717-6.002-5.953-5.953c-7.711,0.117-13.545,5.614-19.458,9.95
		c-6.914,5.07-13.771,10.216-20.572,15.437c-1.177,0.904-2.344,1.821-3.518,2.729c-6.155,0.559-12.309,1.118-18.464,1.677
		c-7.569,0.688-7.641,12.6,0,11.906c0.451-0.041,0.903-0.082,1.354-0.123c-6.211,4.979-12.376,10.015-18.489,15.116
		c-5.889,4.914,2.572,13.298,8.419,8.419c10.395-8.674,20.931-17.179,31.618-25.492c11.627-1.056,23.254-2.112,34.881-3.169
		c0.422,3.902,0.916,7.798,1.492,11.687c1.307,8.821,2.451,27.97,15.636,26.723C377.215-202.542,377.29-214.455,369.653-213.733z
		 M335.392-250.586c1.105-0.825,2.205-1.657,3.313-2.478c3.062-2.268,6.135-4.522,9.218-6.76c0.936-0.68,1.962-1.541,3.048-2.355
		c0.113,3.381,0.291,6.758,0.519,10.13C346.124-251.561,340.758-251.074,335.392-250.586z"/>
	<path style="fill:#120000;" d="M504.872-280.349c-9.365,6.297-19.159,11.906-29.392,16.67c-2.572,1.198-5.166,2.352-7.792,3.427
		c-1.128,0.462-2.259,0.92-3.397,1.354c-0.141,0.054-0.388,0.124-0.677,0.206c-0.077-0.291-0.155-0.629-0.201-1.023
		c-0.178-1.513-0.264-3.036-0.277-4.559c-0.026-3.067,0.276-6.071,0.866-9.079c1.468-7.485-10.006-10.689-11.481-3.165
		c-1.482,7.561-2.25,16.351,0.109,23.843c0.166,0.526,0.363,1.004,0.575,1.459c-3.905,12.048-8.257,23.935-13.104,35.64
		c-2.929,7.072,8.586,10.156,11.481,3.165c4.635-11.193,8.813-22.554,12.587-34.061c1.096-0.21,2.201-0.53,3.287-0.945
		c15.296-5.839,29.848-13.521,43.426-22.652C517.207-274.323,511.254-284.641,504.872-280.349z"/>
</g>
<g id="international">
	<path style="fill:#120000;" d="M-0.635-557.525c-6.036,15.603-12.071,31.206-18.107,46.809c-2.766,7.151,8.741,10.248,11.481,3.165
		c6.036-15.603,12.071-31.206,18.107-46.809C13.612-561.51,2.105-564.607-0.635-557.525z"/>
	<path style="fill:#120000;" d="M98.456-551.558c-5.059,11.419-11.289,22.274-18.787,32.272c-0.67,0.894-1.486,1.722-2.186,2.595
		c-0.646-2.547-1.947-6.391-2.117-7.056c-1.617-6.324-3.062-12.723-4.859-18.998c-1.16-4.052-3.024-8.277-7.018-10.235
		c-2.91-1.426-5.866-1.215-8.49-0.017c-2.692-3.075-8.913-3.14-10.524,2.029c-3.717,11.921-7.782,23.722-12.198,35.402
		c-2.589,7.27,8.805,10.244,11.481,3.165c2.029-5.697,4.449-11.205,7.344-16.518c1.566-2.875,3.252-5.684,5.049-8.421
		c0.595-0.906,1.616-2.024,2.204-3.052c0.506,1.866,1.589,4.403,1.827,5.336c0.771,3.016,1.542,6.031,2.314,9.047
		c1.419,5.547,2.155,12.206,4.824,17.323c2.208,4.231,6.957,6.395,11.598,5.095c4.966-1.392,8.109-5.779,11.031-9.685
		c7.487-10.01,13.726-20.848,18.787-32.272C111.812-552.491,101.557-558.556,98.456-551.558z"/>
	<path style="fill:#120000;" d="M177.64-555.105c-14.828,1.41-29.657,2.82-44.486,4.229c-7.561,0.719-7.636,12.632,0,11.906
		c6.585-0.626,13.17-1.252,19.756-1.878c-4.992,8.244-8.81,17.131-11.407,26.463c-2.058,7.393,9.426,10.548,11.481,3.165
		c3.124-11.222,8.173-21.479,15.028-30.892c0.045-0.061,0.079-0.122,0.12-0.184c3.169-0.301,6.339-0.603,9.508-0.904
		C185.201-543.917,185.276-555.831,177.64-555.105z"/>
	<path style="fill:#120000;" d="M218.731-540.468c5.753-0.515,11.507-1.031,17.26-1.546c7.571-0.678,7.642-12.591,0-11.906
		c-11.021,0.987-22.042,1.974-33.062,2.961c-7.198,0.645-7.611,11.435-1.068,11.91c-2.315,2.919-4.534,5.914-6.623,9.001
		c-3.957,5.846-10.111,13.785-5.694,20.983c3.859,6.287,13.608,6.748,20.133,7.255c8.536,0.664,17.14-0.332,25.397-2.535
		c7.396-1.973,4.259-13.461-3.165-11.481c-5.264,1.404-10.546,2.245-16.002,2.316c-2.958,0.039-5.953-0.086-8.89-0.46
		c-0.969-0.123-6.419-0.518-6.828-1.375c-0.343-0.719,3.019-5.171,3.429-5.81c0.227-0.355,0.467-0.702,0.697-1.054
		c0.375,0.068,0.77,0.11,1.192,0.11h15.225c7.661,0,7.674-11.906,0-11.906h-7.716c1.804-2.159,3.675-4.261,5.597-6.322
		C218.656-540.373,218.69-540.421,218.731-540.468z"/>
	<path style="fill:#120000;" d="M326.256-514.315c-11.015-2.432-21.424-6.727-30.769-12.884c6.447-3.513,12.379-8.518,14.373-15.062
		c3.027-9.931-6.677-17.828-16.049-16.18c-4.721,0.831-8.824,3.567-12.434,7.039c-1.284-4.504-9.45-5.556-11.748,0.232
		c-5.636,14.193-10.407,28.683-14.306,43.448c-1.972,7.467,9.041,10.377,11.481,3.165c2.715-8.024,6.375-15.727,10.935-22.858
		c0.173,1.116,0.709,2.181,1.736,3.031c12.737,10.54,27.442,17.978,43.615,21.55C330.558-501.185,333.747-512.661,326.256-514.315z
		 M286.817-539.476c1.928-2.184,3.955-4.689,6.48-6.2c1.453-0.869,5.077-2.174,5.037,0.315c-0.037,2.288-5.717,5.845-7.308,6.878
		c-2.586,1.68-5.316,2.926-8.221,3.904C284.095-536.249,285.419-537.892,286.817-539.476z"/>
	<path style="fill:#120000;" d="M413.523-547.542c-3.091,6.402-6.356,12.713-9.846,18.907c-1.313,2.331-4.096,9.194-7.181,12.199
		c-5.048-9.154-8.859-18.789-11.451-28.986c-0.739-2.906-4.349-5.287-7.323-4.158c-3.377,1.282-6.323,3.029-8.96,5.104
		c-0.436-2.663-3.38-4.727-5.93-4.754c-3.554-0.037-5.547,2.777-5.953,5.953c-0.865,6.764-2.212,13.446-3.945,20.028
		c-0.467,0.905-0.683,1.794-0.708,2.642c-1.185,4.226-2.528,8.408-4.021,12.539c-2.609,7.218,8.892,10.328,11.481,3.165
		c1.659-4.59,3.098-9.222,4.344-13.899c3.013-5.758,6.456-12.155,11.606-16.253c3.198,10.15,7.577,19.882,13.104,29.008
		c1.034,1.708,3.064,3.089,5.14,2.948c8.191-0.555,12.473-6.563,16.363-13.11c4.895-8.239,9.394-16.697,13.561-25.326
		C427.121-548.402,416.858-554.448,413.523-547.542z"/>
	<path style="fill:#120000;" d="M490.784-522.281c6.484-1.6,6.182-12.306-1.084-11.724c-0.544,0.044-1.087,0.087-1.631,0.13
		c-1.111-7.073-1.27-14.283-0.452-21.608c0.573-5.129-6.903-7.859-10.163-4.209c-14.822,16.596-29.644,33.192-44.466,49.788
		c-5.09,5.699,3.302,14.148,8.419,8.419c5.377-6.021,10.755-12.042,16.132-18.063c0.146-0.002,0.29-0.001,0.442-0.014
		c6.895-0.552,13.789-1.103,20.684-1.655c0.888,3.061,1.931,6.084,3.156,9.047c2.887,6.981,14.411,3.921,11.481-3.165
		C492.353-517.632,491.517-519.948,490.784-522.281z M468.971-532.347c2.14-2.396,4.28-4.792,6.42-7.189
		c0.156,2.215,0.402,4.422,0.724,6.617C473.734-532.728,471.352-532.537,468.971-532.347z"/>
	<path style="fill:#120000;" d="M554.403-551.843c-13.11,0.435-26.219,0.87-39.329,1.306c-7.642,0.254-7.676,12.161,0,11.906
		c6.7-0.222,13.4-0.445,20.1-0.667c-2.567,10.819-4.528,21.743-5.974,32.786c-0.421,3.215,3.038,5.923,5.953,5.953
		c3.562,0.037,5.537-2.778,5.953-5.953c1.465-11.187,3.657-22.26,6.413-33.196l6.883-0.229
		C562.044-540.19,562.079-552.098,554.403-551.843z"/>
	<path style="fill:#120000;" d="M587.263-547.587c-6.548,11.644-10.502,24.069-12.261,37.285c-0.428,3.214,3.043,5.923,5.953,5.953
		c3.567,0.037,5.531-2.779,5.953-5.953c1.468-11.031,5.193-21.6,10.635-31.276C601.304-548.264,591.023-554.273,587.263-547.587z"/>
	<path style="fill:#120000;" d="M643.549-548.66c-3.971-3.667-9.342-0.553-10.169,3.429c-8.123,4.235-15.886,11.343-16.398,21.019
		c-0.463,8.737,5.708,18.207,14.888,19.029c9.961,0.891,17.789-8.502,19.66-17.505C653.487-532.106,650.664-542.089,643.549-548.66z
		 M633.017-516.99c-3.814-0.358-4.701-6.019-3.656-8.816c1.577-4.219,5.716-6.959,9.679-8.985c0.879,2.038,1.308,4.269,1.228,6.632
		C640.151-524.673,637.809-516.54,633.017-516.99z"/>
	<path style="fill:#120000;" d="M724.474-543.514c-2.247,6.498-4.493,12.997-6.74,19.495c-0.43,1.244-0.674,3.103-1.463,4.11
		c-0.509,0.65,0.416,0.362-1.18,0.447c-2.328,0.124-4.975-0.96-7.004-1.987c-9.188-4.651-14.741-14.765-19.572-23.396
		c-2.001-3.576-8.432-4.178-10.27-0.02c-1.323,0.328-2.566,1.157-3.483,2.638c-5.012,8.099-7.783,16.934-8.692,26.387
		c-0.55,5.717,8.758,8.354,11.094,3.005c2.343-5.367,4.687-10.734,7.03-16.102c5.916,8.93,13.329,17.058,23.743,20.205
		c7.177,2.168,15.288,1.535,18.976-5.849c3.983-7.974,6.134-17.352,9.043-25.769C738.464-547.606,726.967-550.724,724.474-543.514z"
		/>
	<path style="fill:#120000;" d="M810.411-510.56c-7.97-13.66-17.221-26.483-27.584-38.427c-1.865-2.149-5.454-2.203-7.698-0.61
		c-1.878-0.787-4.075-0.521-5.83,1.587c-9.027,10.838-18.053,21.675-27.079,32.513c-4.822,5.79,3.018,14.038,8.419,8.419
		c3.822-3.977,7.644-7.953,11.466-11.93c0.801,0.448,1.768,0.715,2.908,0.715h26.462c3.03,4.478,5.921,9.055,8.655,13.742
		C803.99-497.935,814.284-503.922,810.411-510.56z M772.861-530.199c1.827-1.901,3.654-3.802,5.481-5.703
		c1.543,1.876,3.045,3.782,4.527,5.703H772.861z"/>
	<path style="fill:#120000;" d="M870.181-515.46c-11.036,3.195-22.238,5.247-33.632,6.16c2.515-10.346,4.323-20.827,5.492-31.435
		c0.838-7.605-11.075-7.546-11.906,0c-1.354,12.283-3.802,24.378-7.151,36.269c-1.021,3.627,1.87,7.664,5.74,7.536
		c15.12-0.503,30.089-2.842,44.622-7.049C880.692-506.106,877.568-517.599,870.181-515.46z"/>
</g>
<path id="confetti" style="fill:#120000;" d="M103.214-85.465L60.976-43.227c-2.838,2.838-7.482,2.838-10.321,0L8.417-85.465
	c-2.838-2.838-2.838-7.483,0-10.321l42.238-42.238c2.838-2.838,7.482-2.838,10.321,0c6.674,6.674,13.347,13.347,20.021,20.021
	c7.406,7.406,14.812,14.812,22.217,22.217C103.561-95.437,105.343-93.574,103.214-85.465z"/>
<path id="party3" style="fill:#120000;" d="M397.634-105.708c-10.642-6.509-23.459-8.06-35.355-5.135
	c-14.263,1.686-27.484,9.586-35.468,22.349c-5.046,8.067-7.753,17.793-5.626,27.054c0.748,12.278,8.519,23.116,16.859,31.768
	c5.91,6.132,26.359,21.043,15.504,30.43c-5.154,4.457-12.379,5.136-18.85,5.875c-0.275,0.031-0.55,0.064-0.825,0.096
	c-12.053-2.326-25.183-5.859-34.431,3.044c-15.526,14.946,4.629,37.094,13.24,49.725c1.458,2.139,3.219,4.533,5.05,7.092
	c2.865,6.443,4.213,13.258,2.209,20.712c-0.37,1.375-0.84,2.689-1.386,3.949c-7.392,5.006-16.307,6.81-24.601,9.772
	c-8.417,3.005-15.975,7.25-22.967,12.812c-13.236,10.529-23.885,24.75-32.846,38.979c-17.279,27.44-26.29,63.063-11.53,92.412
	c3.768,5.134,7.594,10.545,12.495,14.679c1.789-0.156,3.485-1.343,4.529-2.991c0.367-1.203,0.574-2.467,0.693-3.706
	c0.05-0.517,0.083-1.033,0.104-1.548c-0.228-0.741-0.612-1.474-1.182-2.171c-1.772-2.166-3.312-4.41-4.675-6.707
	c-1.614-6.935-2.37-13.976-2.349-21.005c4.316-30.906,21.42-59.437,45.642-78.903c6.288-5.054,13.185-9.407,20.37-13.068
	c5.997-3.056,12.346-5.347,18.395-8.285c9.171-2.683,17.827-6.209,22.884-15.411c6.444-11.727,4.41-26.205-1.463-37.689
	c-3.553-6.948-8.542-13.089-13.516-19.056c-0.125-0.15-0.258-0.305-0.396-0.463c-1.189-1.747-2.358-3.512-3.433-5.348
	c-3.621-6.181-4.554-12.653,1.43-17.65c5.136-4.29,11.902-5.364,18.438-6.064c3.607-0.036,7.252-0.431,10.748-1.25
	c5.539-0.847,10.946-2.208,15.895-5.065c13.685-7.9,16.538-23.09,8.157-36.137c-9.623-14.981-26.829-28.399-27.599-47.651
	c-0.881-22.044,26.827-23.901,42.569-24.177c1.941-0.034,3.388-0.827,4.347-1.986C400.996-98.96,401.423-103.391,397.634-105.708z"
	/>
<path id="party1" style="fill:#120000;" d="M726.901-29.273c-13.405-9.817-31-13.798-47.325-14.923
	c-11.449-0.789-23.067,0.135-34.339,2.525c0.322-4.844,1.584-9.676,3.991-14.323c11.266-21.749,35.708-29.817,58.06-35.611
	c4.204-0.483,8.429-0.781,12.671-0.941c7.638-0.287,7.676-12.195,0-11.906c-2.442,0.092-4.88,0.242-7.313,0.442
	c-1.082-0.487-2.374-0.639-3.834-0.272c-1.579,0.397-3.168,0.804-4.763,1.223c-30.466,4.238-58.903,17.781-75.445,45.343
	c-4.673,7.787-8.033,16.135-10.022,24.689c-25.818,11.411-48.413,30.733-62.098,55.516c-9.691,17.551-12.512,36.51-9.204,56.222
	c1.575,9.383,4.188,19.23,8.048,28.466c-6.441,3.353-12.606,7.294-18.484,11.543c-30.004,21.69-56.724,51.065-61.13,89.281
	c-0.211,1.83-0.336,3.662-0.417,5.494c-0.222,0.695-0.455,1.386-0.669,2.085c-0.589,1.93-0.225,3.566,0.665,4.802
	c0.224,5.257,0.942,10.491,2.151,15.644c1.748,7.457,13.231,4.3,11.481-3.165c-1.363-5.811-1.921-11.585-1.807-17.277
	c12.667-38.571,40.489-73.624,76.991-92.043c1.32,1.922,2.72,3.77,4.205,5.529c10.794,12.779,27.374,18.212,43.716,15.341
	c14.387-2.527,35.79-15.885,22.418-32.066c-10.73-12.985-30.876-17.063-46.84-15.401c-6.395,0.666-12.575,2.156-18.546,4.248
	c-2.827-10.258-2.382-22.085-0.518-31.724c5.836-30.179,23.796-56.381,48.75-72.888c1.84,12.575,6.808,24.731,15.173,35.347
	c20.075,25.479,55.698,36.532,85.246,20.885c14.719-7.794,25.298-21.896,27.552-38.491C747.591-2.8,740.863-19.048,726.901-29.273z
	 M597.141,116.715c1.715,0.476,7.487,2.599,6.383,5.266c-1.624,3.921-10.748,2.508-13.635,1.712
	c-4.511-1.243-8.209-3.335-11.225-6.026C584.884,115.89,591.392,115.12,597.141,116.715z M699.184,8.94
	c-10.026,3.698-20.489,0.3-29.032-5.367c-8.014-5.316-15.047-13.051-19.598-21.85c0.095-0.025,0.188-0.054,0.283-0.078
	c10.774-2.773,21.859-3.942,32.976-3.495c8.705,0.35,22.983,0.216,26.525,10.076C713.579-2.755,707.595,5.837,699.184,8.94z"/>
<path id="party2" style="fill:#120000;" d="M993.362-68.007c-23.307-7.858-51.149,1.63-67.002,19.868
	c-0.338,0.389-0.668,0.783-0.992,1.18c-0.114,0.092-0.232,0.177-0.345,0.269c-0.393,0.546-0.771,1.1-1.139,1.659
	c-2.942,4.041-5.089,8.517-5.784,13.444c-0.76,3.628-0.776,6.945-0.193,10.003c0.003,3.763,0.802,7.614,2.597,11.462
	c8.429,18.067,27.945,26.115,42.67,38.493c2.661,5.7,3.647,12.002,1.565,18.378C961.098,57.9,949.433,60.023,939.1,59.86
	c-13.119-0.206-26.007-2.628-39.178-1.645c-11.976,0.894-24.063,3.834-34.071,10.726c-10.216,7.036-17.559,17.549-19.869,28.925
	c-2.85,1.886-5.544,4.135-8.064,6.723c-9.309,9.564-15.946,22.029-17.654,35.326c-0.54,4.204-0.441,8.406,0.202,12.481
	c0.207,5.327,1.591,10.391,4.817,14.394c0.036,0.045,0.074,0.081,0.11,0.124c7.377,13.524,21.557,22.738,38.569,20.326
	c7.555-1.071,4.341-12.545-3.165-11.481c-8.522,1.208-16.82-3.503-22.169-9.837c-3.302-3.91-5.358-8.529-6.304-13.401
	c-0.009-2.679,0.404-5.498,0.641-7.213c0.65-4.705,2.12-9.422,4.242-13.666c2.616-5.235,6.09-9.804,10.3-13.616
	c0.979,2.648,2.269,5.264,3.95,7.811c12.517,18.968,41.405,23.621,58.115,7.092c8.168-8.08,7.834-19.688-0.559-27.445
	c-8.731-8.071-22.339-12.529-33.888-14.138c-3.951-0.551-7.783-0.568-11.474-0.097c0.745-1.147,1.58-2.242,2.495-3.263
	c19.66-21.938,55.403-6.55,79.554-3.943c20.307,2.192,47.292-4.34,51.459-27.806c2.665-15.005-3.448-26.669-13.153-36.15
	c-0.943-0.566-1.899-1.111-2.848-1.666c-1.012-0.956-2.068-1.871-3.169-2.734c-9.653-7.568-25.725-11.66-30.753-23.814
	c-4.681-11.315,1.276-24.619,11.001-31.1c10.485-6.988,24.482-8.572,36.565-5.449c6.308,1.63,12.535,4.697,16.596,9.957
	c5.063,6.557,5.681,15.54,6.271,23.477c0.576,7.741,11.087,7.563,11.906,0C1032.228-35.722,1016.69-60.142,993.362-68.007z
	 M875.556,105.142c5.387-0.034,14.771,2.057,14.28,9.315c-0.311,4.592-6.356,6.588-10.176,6.855
	c-5.07,0.354-10.27-1.594-14.095-4.886c-2.722-2.343-4.4-5.142-5.221-8.128C865.144,106.353,870.383,105.175,875.556,105.142z"/>
<g id="d20">
	<path id="dice" d="M81.097,61.557l18.031-26.793c0.526-0.859-0.017-1.976-1.013-2.086l-35.577-3.793L81.097,61.557z M98.067,44.306
		L85.205,65.335l13.092,7.903c0.456,0.275,1.035-0.055,1.035-0.59V44.666C99.333,43.973,98.429,43.715,98.067,44.306z
		 M96.215,25.715l-33.21-15.066c-0.905-0.421-1.939,0.246-1.939,1.248v11.287l34.773,3.833C96.6,27.102,96.904,26.055,96.215,25.715
		z M82.341,70.02L68.686,94.588c-0.741,1.213,0.613,2.621,1.842,1.915l25.763-16.948c0.422-0.278,0.408-0.904-0.022-1.165
		L82.341,70.02z M58.334,68.271H39.677l16.328,28.94c0.535,0.873,1.431,1.31,2.328,1.31s1.794-0.437,2.328-1.31l16.328-28.94H58.334
		z M18.369,73.238l13.092-7.904L18.6,44.305c-0.36-0.591-1.266-0.333-1.266,0.361v27.983C17.334,73.183,17.913,73.513,18.369,73.238
		z M34.327,70.02l-13.928,8.37c-0.432,0.261-0.444,0.887-0.022,1.165L46.14,96.503c1.228,0.706,2.583-0.701,1.841-1.915
		L34.327,70.02z M20.828,27.016L55.6,23.185V11.898c0-1.004-1.034-1.669-1.939-1.248l-33.21,15.066
		C19.763,26.055,20.068,27.102,20.828,27.016z M35.57,61.557l18.557-32.673l-35.577,3.793c-0.996,0.112-1.539,1.227-1.013,2.086
		L35.57,61.557z M58.334,62.771H75.49L58.334,32.564L41.177,62.771H58.334z"/>
	<g>
		<path style="fill:#FFFFFF;" d="M51.43,57.155c0-3.166,3.705-3.729,3.705-4.965c0-0.6-0.479-0.852-0.923-0.852
			c-0.815,0-1.271,0.911-1.271,0.911l-1.56-1.043c0,0,0.792-1.847,3.022-1.847c1.403,0,2.927,0.803,2.927,2.626
			c0,2.675-3.454,3.19-3.515,4.294h3.646v1.799h-5.937C51.465,57.743,51.43,57.443,51.43,57.155z"/>
		<path style="fill:#FFFFFF;" d="M58.677,53.773c0-2.459,0.792-4.413,3.227-4.413s3.227,1.954,3.227,4.413s-0.792,4.449-3.227,4.449
			S58.677,56.232,58.677,53.773z M62.971,53.773c0-1.392-0.24-2.494-1.067-2.494s-1.067,1.103-1.067,2.494
			c0,1.403,0.24,2.53,1.067,2.53S62.971,55.177,62.971,53.773z"/>
	</g>
</g>
<g id="pencil_1_">
	<g>
		<g id="pencil">
			<path style="fill:#FFD14B;" d="M-63.267,300.557c0.065-0.592,0.055-1.195-0.035-1.786c0.886-0.94,1.381-2.292,1.169-4.071
				c-3.32-27.907-3.63-55.826-3.668-83.895c-0.015-11.123-0.066-22.249-0.385-33.368c1.4-9.951,1.837-19.98,1.325-29.997
				c0.852-0.927,1.426-2.173,1.506-3.749c3.204-63.262,2.632-126.671-1.69-189.865c0.823-0.835,1.607-1.719,2.329-2.665
				c1.952-2.558,0.399-6.663-2.136-8.145c-2.155-1.261-4.341-0.955-6.13,0.229c-0.613-0.036-1.253,0.011-1.914,0.173
				c-8.159,1.989-16.408,3.497-24.769,4.313c-1.662-0.7-3.414-1.053-5.267-0.852c-0.379,0.041-0.741,0.118-1.093,0.213
				c-1.662-0.487-3.224-1.291-4.791-2.438c-2.1-1.537-5.485-0.798-7.214,0.931c-1.941,1.941-2.136,4.842-0.931,7.214
				c0.679,1.336,1.298,2.808,2.063,4.149c-6.889,12.593-1.495,28.855-1.54,42.37c-0.115,34.52-1.216,68.988-0.686,103.521
				c0.3,19.533,0.859,39.06,1.653,58.579c0.038,0.927,0.249,1.74,0.586,2.443c-0.008,0.057-0.026,0.106-0.033,0.163
				c-0.749,6.507-0.567,13.015-0.079,19.519c0.065,3.744,0.185,7.485,0.353,11.223c-0.809,0.934-1.331,2.212-1.356,3.849
				c-0.216,14.221-0.431,28.442-0.647,42.663c-0.435,0.008-0.87,0.022-1.306,0.028c-1.929,0.026-1.934,3.027,0,3
				c0.42-0.006,0.84-0.019,1.26-0.027l-0.444,29.308c-0.09,5.919-0.18,11.838-0.269,17.757c-0.061,4.007-0.649,8.417,1.438,11.809
				c-2.407,3.496-3.693,7.806-4.572,12.02c-0.656,3.144,0.921,6.434,4.158,7.323c2.953,0.811,6.663-0.996,7.323-4.158
				c0.45-2.157,0.926-4.555,1.756-6.504c0.775-1.82,1.47-2.752,2.994-3.591c0.119-0.065,0.225-0.138,0.336-0.207
				c0.472,0.097,0.942,0.213,1.408,0.363c2.906,0.932,5.266,2.8,6.916,5.213c0.529,2.466,1.712,4.613,3.486,6.722
				c3.911,4.648,11.557-0.338,9.95-5.792c-0.072-0.243-0.17-0.476-0.248-0.716c1.841-1.606,2.852-3.802,4.979-5.495
				c1.088-0.866,2.274-1.492,3.522-1.929c1.45,1.007,2.233,2.497,2.524,4.187c-0.294,0.464-0.546,0.958-0.696,1.51
				c-0.027,0.1-0.045,0.194-0.062,0.296c-0.091,0.552-0.207,1.174-0.223,1.734c-0.019,0.681,0.107,1.371,0.256,2.034
				c0.304,1.353,1.062,2.403,1.944,3.426c0.539,0.581,1.178,0.991,1.916,1.231c0.709,0.373,1.474,0.544,2.294,0.513
				c0.82,0.031,1.584-0.14,2.294-0.513c0.738-0.24,1.377-0.65,1.916-1.231c0.984-1.071,1.718-2.461,1.738-3.947
				c0.322-0.731,0.531-1.533,0.613-2.368C-58.98,308.583-60.502,304.137-63.267,300.557z"/>
			<path style="fill:#00622D;" d="M-67.328-86.305c-7.105-0.09-13.542,3.166-20.558,3.439c-7.564,0.294-15.215-0.644-22.625-2.086
				c-3.496-0.68-7.853,1.605-7.536,5.74c0.215,2.797,1.277,4.973,2.851,6.725c-1.363,1.043-2.299,2.597-2.219,4.497
				c0.084,1.986,0.5,3.763,1.211,5.336c-0.747,2.802,0.338,5.842,4.096,6.475c6.967,1.174,15.664,4.153,22.689,3.016
				c1.582-0.256,3.104-0.839,4.572-1.635c0.974,0.263,2.033,0.313,3.128,0.078c1.242-0.266,2.484-0.533,3.725-0.799
				c0.8-0.172,1.602-0.64,2.28-1.232c3.952-0.449,7.847-1.475,10.149-4.235c3.979-4.77,3.445-13.545,4.188-19.367
				C-60.963-83.578-64.437-86.268-67.328-86.305z"/>
			<path style="fill:#C4554E;" d="M-63.004-101.777c-0.656-3.772-2.215-7.067-4.689-9.985c-0.554-0.653-1.26-1.105-2.035-1.384
				c-0.587-0.458-1.205-0.889-1.856-1.287c-0.161-1.212-0.688-2.34-1.674-3.111c-1.251-0.977-1.958-2.646-3.56-4.066
				c-1.926-1.708-4.288-2.643-6.86-2.772c-2.149-0.108-4.424,0.467-6.369,1.579c-9.228-1.524-20.697,1.824-22.191,11.806
				c-2.79,2.717-5.108,5.977-6.237,9.52c-0.521,1.636-0.521,3.395-0.123,5.044c-0.347,0.431-0.69,0.87-1.025,1.327
				c-1.222,1.668-0.99,4.317,0,6.009c1.087,1.857,3.022,2.878,5.14,2.948c0.755,0.025,1.514-0.063,2.257-0.232
				c4.743,2.709,12.169,2.719,16.826,2.835c1.357,0.034,2.713,0.011,4.068-0.041c6.566,2.26,15.052-1.163,21.525-4.2
				c2.186,0.429,4.583-0.239,6.133-2.62C-61.485-93.765-62.358-98.069-63.004-101.777z"/>
			<path style="fill:#E5C28B;" d="M-68.356,318.377c-0.564-0.567-1.515-1.009-2.176-1.552c0.006-0.032,0.014-0.063,0.02-0.096
				c0.017,0.013,0.03,0.022,0.047,0.035c0.173-1.03,0.279-2.066,0.319-3.109c0.391-7.688-11.376-7.59-11.906,0
				c-0.158,3.113-1.69,6.173-3.475,9.064c-1.053-0.813-2.336-1.371-3.69-1.31c-0.751,0.034-1.57,0.173-2.322,0.458
				c-1.332-1.414-2.943-2.63-4.607-3.747c-0.025-0.017-0.051-0.03-0.077-0.046c-0.022-0.368-0.041-0.726-0.066-1.059
				c-0.194-2.612-1.743-4.494-3.696-5.342c-0.714-0.817-1.658-1.446-2.802-1.76c-3.053-0.839-6.539,1.027-7.323,4.158
				c-0.746,3.29-2.029,5.553-4.179,8.317c-1.972,2.535-2.472,5.947,0,8.419c0.49,0.49,1.114,0.888,1.805,1.181
				c0.209,1.276,0.541,2.573,1.041,3.899c1.572,4.172,4.033,7.94,5.772,12.039c1.664,3.923,2.596,8.005,3.76,12.084
				c0.943,3.302,2.162,7.555,4.748,10.026c2.833,2.708,7.651,2.207,10.803,0.351c6.952-4.096,6.157-12.899,9.837-19.192
				c1.456-0.585,2.723-1.731,3.413-3.547c1.408-3.707,2.816-7.415,4.224-11.122c1.254-3.301,3.111-6.726,3.453-10.266
				C-65.144,323.263-66.233,320.512-68.356,318.377z"/>
		</g>
		<path style="fill:none;stroke:#000000;stroke-width:7;stroke-miterlimit:10;" d="M-63,321
			c-3.263,8.51-20.158,52.451-25.487,61.169c-0.731,1.195-2.473,3.974-4.513,3.831c-2.13-0.15-3.524-3.411-4.15-4.951
			C-101.481,370.382-117.118,323.64-118,321c0-141.667,0-283.333,0-425c3.648-11.833,14.359-20.081,26.5-20.5
			c12.842-0.444,24.618,7.963,28.5,20.5C-63,37.667-63,179.333-63,321z"/>
		<path d="M-108.58,338.039c-0.173-0.409-0.347-0.818-0.52-1.227c-0.071-0.167-0.226-0.322-0.403-0.446
			c-0.729-1.322-1.458-2.644-2.187-3.966c-0.379-0.688-1.383-0.97-2.052-0.538c-0.697,0.449-0.944,1.317-0.538,2.052
			c1.037,1.88,2.073,3.759,3.11,5.639c0.379,0.688,1.383,0.97,2.052,0.538c0.32-0.206,0.602-0.514,0.689-0.896
			C-108.333,338.774-108.414,338.432-108.58,338.039z"/>
		<path d="M-63.579,320.221c-3.019,1.202-4.808-2.237-5.369-4.631c-0.613-2.615-0.505-5.824-2.539-7.862
			c-2.008-2.01-4.98-1.674-7.229-0.278c-2.465,1.531-4.297,4.145-5.477,6.752c-0.926,2.046-1.345,5.135-3.243,6.559
			c-2.626,1.971-5.393-1.56-6.435-3.592c-1.426-2.783-2.375-5.789-4.943-7.774c-2.248-1.738-5.214-2.239-7.634-0.53
			c-2.571,1.816-3.797,5.008-4.952,7.807c-0.555,1.345-1.109,2.697-1.846,3.956c-0.358,0.612-0.751,1.198-1.224,1.726
			c-0.184,0.205-0.427,0.544-0.669,0.683c-0.026,0.019-0.061,0.018-0.088,0.034c-0.741-0.99-2.73-0.701-2.726,0.875
			c0.004,1.321,1.001,2.215,2.304,2.237c1.361,0.023,2.423-0.734,3.301-1.706c1.903-2.109,2.909-4.764,3.983-7.348
			c0.898-2.161,2.497-6.563,5.457-6.354c3.217,0.227,4.656,4.071,5.79,6.535c1.331,2.892,3.137,5.727,6.366,6.706
			c2.76,0.837,5.379-0.469,6.857-2.827c1.583-2.525,2.046-5.543,3.722-8.047c1.07-1.598,4.398-5.474,6.567-3.29
			c1.08,1.087,1.151,3.107,1.386,4.528c0.287,1.733,0.652,3.455,1.457,5.032c1.43,2.801,4.833,4.959,7.985,3.704
			C-61.009,322.408-61.782,319.506-63.579,320.221z"/>
		<path d="M-83.27,367.223c-4.846-3.465-10.998-1.674-15.858,0.713c-0.727,0.357-0.926,1.389-0.538,2.052
			c0.318,0.544,0.882,0.766,1.447,0.708c-0.28,0.564-0.083,1.286,0.368,1.75c-0.061,2.051,0.245,4.132,0.952,6.05
			c0.391,1.062,0.852,2.444,1.729,3.214c0.466,0.41,1.03,0.693,1.651,0.742c0.379,0.645,1.04,1.097,1.903,1.098
			c0.503,0.001,1.062-0.28,1.295-0.743c1.399-2.777,2.673-5.613,3.851-8.49c0.003-0.004,0.005-0.008,0.008-0.013
			c-0.001,0-0.001-0.001-0.002-0.001c0.049-0.12,0.104-0.237,0.153-0.358c0.225-0.553-0.079-1.203-0.533-1.564
			c0.258-0.561,0.516-1.123,0.774-1.684c0.057-0.125,0.096-0.253,0.126-0.381c0.027-0.047,0.051-0.094,0.072-0.142
			c0.616-0.037,1.231-0.085,1.845-0.157C-82.533,369.843-82.005,368.127-83.27,367.223z"/>
		
			<line style="fill:none;stroke:#000000;stroke-width:2.787;stroke-linecap:round;stroke-miterlimit:10;" x1="-100.5" y1="-35" x2="-100.5" y2="289.5"/>
		
			<line style="fill:none;stroke:#000000;stroke-width:2.787;stroke-linecap:round;stroke-miterlimit:10;" x1="-78.5" y1="-35" x2="-78.5" y2="289.5"/>
	</g>
	<path d="M-62.46-63.053c-3.276,1.835-6.716,3.363-10.263,4.581c0.302-8.416,0.431-16.836,0.38-25.257
		c3.49-1.114,6.886-2.516,10.136-4.205c1.714-0.891,0.198-3.481-1.514-2.59c-12.484,6.489-27.201,8.459-40.977,5.635
		c-3.952-0.81-7.841-1.995-11.553-3.579c-1.756-0.749-3.286,1.834-1.514,2.59c2.342,0.999,4.742,1.845,7.177,2.558
		c-0.589,8.692-0.603,17.409-0.039,26.103c-2.107-0.578-4.187-1.258-6.228-2.047c-1.802-0.697-2.582,2.203-0.797,2.893
		c14.254,5.51,30.411,5.822,44.924,1.079c4.084-1.335,8.036-3.071,11.784-5.17C-59.261-61.406-60.772-63.998-62.46-63.053z
		 M-99.503-55.205c-1.786-0.159-3.566-0.392-5.333-0.703c-0.927-0.163-1.849-0.354-2.767-0.558c0.005-0.072,0.012-0.143,0.007-0.221
		c-0.581-8.605-0.59-17.234-0.042-25.84c2.796,0.679,5.635,1.171,8.492,1.479C-99.265-72.434-99.384-63.82-99.503-55.205z
		 M-96.506-55.011c0.119-8.597,0.237-17.193,0.356-25.79c3.024,0.187,6.059,0.157,9.083-0.071
		c-0.154,8.505,0.005,17.011,0.489,25.504C-89.872-54.999-93.194-54.872-96.506-55.011z M-84.063-81.17
		c2.936-0.358,5.85-0.92,8.721-1.678c0.039,8.444-0.094,16.887-0.411,25.326c-2.575,0.744-5.196,1.334-7.844,1.755
		C-84.07-64.227-84.224-72.699-84.063-81.17z"/>
	<path d="M-77.938-103.975c-7.608,3.332-16.294,3.649-24.166,1.074c-1.839-0.602-2.627,2.294-0.798,2.893
		c8.687,2.841,18.127,2.281,26.478-1.376C-74.66-102.157-76.185-104.743-77.938-103.975z"/>
</g>
</svg>
