<?xml version="1.0" encoding="iso-8859-1"?>
<!-- Generator: Adobe Illustrator 24.0.1, SVG Export Plug-In . SVG Version: 6.00 Build 0)  -->
<svg version="1.1" id="Layer_1" xmlns="http://www.w3.org/2000/svg" xmlns:xlink="http://www.w3.org/1999/xlink" x="0px" y="0px"
	 viewBox="0 0 82 88" style="enable-background:new 0 0 82 88;" xml:space="preserve">
<path d="M18.236,36.963L0.205,63.756c-0.526,0.859,0.017,1.976,1.013,2.086l35.577,3.793L18.236,36.963z M1.266,54.214
	l12.862-21.029L1.035,25.282C0.579,25.007,0,25.337,0,25.872v27.983C0,54.547,0.904,54.805,1.266,54.214z M3.118,72.805
	l33.21,15.066c0.905,0.421,1.939-0.246,1.939-1.248V75.337L3.493,71.504C2.733,71.418,2.429,72.465,3.118,72.805z M16.993,28.5
	L30.647,3.932c0.741-1.213-0.613-2.621-1.842-1.915L3.043,18.966c-0.422,0.278-0.408,0.904,0.022,1.165L16.993,28.5z M40.999,30.25
	h18.656L43.328,1.31C42.793,0.437,41.896,0,40.999,0s-1.794,0.437-2.328,1.31L22.343,30.25H40.999z M80.964,25.282l-13.092,7.904
	l12.862,21.029c0.36,0.591,1.266,0.333,1.266-0.361V25.872C81.999,25.337,81.42,25.007,80.964,25.282z M65.006,28.5l13.928-8.37
	c0.432-0.261,0.444-0.887,0.022-1.165L53.193,2.018c-1.228-0.706-2.583,0.701-1.841,1.915L65.006,28.5z M78.505,71.504
	l-34.773,3.831v11.287c0,1.004,1.034,1.669,1.939,1.248l33.21-15.066C79.57,72.465,79.266,71.418,78.505,71.504z M63.763,36.963
	L45.205,69.636l35.577-3.793c0.996-0.112,1.539-1.227,1.013-2.086L63.763,36.963z M40.999,35.75H23.843l17.157,30.207L58.156,35.75
	H40.999z"/>
<svg width="82" height="88" viewBox="0 0 82 88" fill="none" xmlns="http://www.w3.org/2000/svg">
<path d="M18.2362 36.963L0.204997 63.7562C-0.321162 64.6156 0.22208 65.7327 1.21802 65.8427L36.7953 69.636L18.2362 36.963ZM1.26586 54.2138L14.1277 33.1852L1.03523 25.2825C0.579117 25.0075 0 25.3375 0 25.872V53.8546C0 54.5473 0.903695 54.8051 1.26586 54.2138ZM3.11766 72.8053L36.3272 87.8717C37.2326 88.2928 38.2661 87.6259 38.2661 86.6239V75.337L3.49349 71.5042C2.73329 71.4183 2.42921 72.465 3.11766 72.8053ZM16.9925 28.4999L30.6471 3.93245C31.3885 2.71903 30.0338 1.31139 28.8055 2.01779L3.0425 18.9662C2.62054 19.2446 2.63421 19.8702 3.06471 20.1315L16.9925 28.4999ZM40.9994 30.2496H59.6558L43.3278 1.30967C42.7931 0.436557 41.8963 0 40.9994 0C40.1025 0 39.2057 0.436557 38.671 1.30967L22.343 30.2496H40.9994ZM80.9636 25.2825L67.8711 33.1869L80.7329 54.2155C81.0934 54.8068 81.9988 54.549 81.9988 53.8546V25.872C81.9988 25.3375 81.4197 25.0075 80.9636 25.2825ZM65.0063 28.4999L78.9341 20.1297C79.3663 19.8685 79.3783 19.2429 78.9563 18.9644L53.1933 2.01779C51.965 1.31139 50.6103 2.71903 51.3518 3.93245L65.0063 28.4999ZM78.5053 71.5042L43.7327 75.3353V86.6222C43.7327 87.6259 44.7662 88.291 45.6716 87.8699L78.8811 72.8036C79.5696 72.465 79.2655 71.4183 78.5053 71.5042ZM63.7626 36.963L45.2053 69.636L80.7825 65.8427C81.7784 65.731 82.3217 64.6156 81.7955 63.7562L63.7626 36.963ZM40.9994 35.7495H23.8429L40.9994 65.9562L58.1559 35.7495H40.9994Z" fill="black"/>
</svg>
