<?xml version="1.0" encoding="iso-8859-1"?>
<!-- Generator: Adobe Illustrator 24.0.1, SVG Export Plug-In . SVG Version: 6.00 Build 0)  -->
<svg version="1.1" id="Layer_1" xmlns="http://www.w3.org/2000/svg" xmlns:xlink="http://www.w3.org/1999/xlink" x="0px" y="0px"
	 viewBox="0 0 82 88" style="enable-background:new 0 0 82 88;" xml:space="preserve">
<path d="M18.236,36.963L0.205,63.756c-0.526,0.859,0.017,1.976,1.013,2.086l35.577,3.793L18.236,36.963z M1.266,54.214
	l12.862-21.029L1.035,25.282C0.579,25.007,0,25.337,0,25.872v27.983C0,54.547,0.904,54.805,1.266,54.214z M3.118,72.805
	l33.21,15.066c0.905,0.421,1.939-0.246,1.939-1.248V75.337L3.493,71.504C2.733,71.418,2.429,72.465,3.118,72.805z M16.993,28.5
	L30.647,3.932c0.741-1.213-0.613-2.621-1.842-1.915L3.043,18.966c-0.422,0.278-0.408,0.904,0.022,1.165L16.993,28.5z M40.999,30.25
	h18.656L43.328,1.31C42.793,0.437,41.896,0,40.999,0s-1.794,0.437-2.328,1.31L22.343,30.25H40.999z M80.964,25.282l-13.092,7.904
	l12.862,21.029c0.36,0.591,1.266,0.333,1.266-0.361V25.872C81.999,25.337,81.42,25.007,80.964,25.282z M65.006,28.5l13.928-8.37
	c0.432-0.261,0.444-0.887,0.022-1.165L53.193,2.018c-1.228-0.706-2.583,0.701-1.841,1.915L65.006,28.5z M78.505,71.504
	l-34.773,3.831v11.287c0,1.004,1.034,1.669,1.939,1.248l33.21-15.066C79.57,72.465,79.266,71.418,78.505,71.504z M63.763,36.963
	L45.205,69.636l35.577-3.793c0.996-0.112,1.539-1.227,1.013-2.086L63.763,36.963z M40.999,35.75H23.843l17.157,30.207L58.156,35.75
	H40.999z"/>
</svg>
