<?xml version="1.0" standalone="no"?>
<!DOCTYPE svg PUBLIC "-//W3C//DTD SVG 20010904//EN"
 "http://www.w3.org/TR/2001/REC-SVG-20010904/DTD/svg10.dtd">
<svg version="1.0" xmlns="http://www.w3.org/2000/svg"
 width="704.000000pt" height="704.000000pt" viewBox="0 0 704.000000 704.000000"
 preserveAspectRatio="xMidYMid meet">
<metadata>
Created by potrace 1.11, written by Peter Selinger 2001-2013
</metadata>
<g transform="translate(0.000000,704.000000) scale(0.100000,-0.100000)"
fill="#000000" stroke="none">
<path d="M3455 7032 c-69 -24 -113 -73 -184 -207 -18 -33 -41 -76 -53 -95 -11
-19 -30 -53 -41 -75 -12 -22 -24 -42 -27 -45 -3 -3 -15 -23 -27 -45 -11 -22
-30 -56 -42 -75 -11 -19 -24 -42 -28 -50 -3 -8 -30 -55 -58 -105 -28 -49 -67
-117 -85 -150 -18 -33 -41 -73 -50 -90 -9 -16 -41 -73 -70 -125 -29 -52 -63
-108 -74 -125 -12 -16 -20 -31 -18 -33 1 -1 -4 -12 -12 -25 -21 -33 -60 -104
-102 -184 -21 -40 -42 -73 -46 -73 -5 0 -8 -4 -8 -9 0 -5 -25 -53 -55 -106
-30 -54 -55 -101 -55 -106 0 -5 -4 -9 -10 -9 -5 0 -10 -4 -10 -9 0 -12 -103
-195 -112 -199 -4 -2 -8 -10 -8 -17 0 -7 -18 -43 -41 -80 -22 -37 -43 -74 -46
-83 -3 -10 -11 -24 -18 -32 -7 -8 -26 -40 -42 -70 -17 -30 -47 -85 -67 -122
l-38 -68 1492 0 1491 0 -37 68 c-20 37 -65 117 -99 177 -35 61 -73 128 -85
150 -13 22 -36 63 -52 90 -16 28 -34 62 -41 78 -6 15 -15 27 -19 27 -4 0 -8 4
-8 9 0 5 -34 70 -76 143 -75 131 -96 169 -146 258 -34 63 -161 286 -192 340
-15 25 -31 57 -37 73 -6 15 -15 27 -20 27 -5 0 -9 5 -9 11 0 6 -17 41 -39 77
-21 37 -107 189 -190 337 -83 149 -156 277 -161 285 -5 8 -28 49 -51 91 -46
85 -85 131 -130 155 -33 17 -132 27 -164 16z"/>
<path d="M2564 6885 c-17 -7 -138 -83 -269 -170 -132 -87 -301 -198 -375 -247
-74 -48 -142 -93 -150 -98 -19 -13 -450 -296 -670 -440 -91 -60 -169 -112
-175 -117 -5 -5 -35 -24 -65 -43 -30 -19 -56 -38 -58 -42 -2 -5 -8 -8 -13 -8
-4 0 -50 -28 -101 -62 -51 -35 -101 -67 -110 -73 -106 -64 -134 -97 -111 -134
9 -13 456 -291 518 -322 11 -5 34 -18 50 -29 17 -11 38 -23 47 -26 10 -4 18
-10 18 -15 0 -5 5 -9 11 -9 6 0 23 -8 37 -19 15 -10 54 -33 87 -51 33 -18 62
-36 65 -40 3 -3 12 -9 20 -13 8 -4 32 -17 52 -29 113 -71 218 -130 225 -129 7
0 25 30 80 131 10 19 34 62 52 95 107 191 324 580 356 640 21 39 51 92 67 118
15 26 28 52 28 57 0 6 5 10 12 10 6 0 8 3 5 7 -4 3 -3 11 2 17 10 12 34 55 94
166 22 41 44 77 49 78 4 2 8 9 8 15 0 7 21 48 46 92 25 44 66 118 92 165 25
47 48 87 51 90 3 3 13 19 21 35 8 17 43 81 78 144 35 63 66 127 69 142 11 75
-74 143 -143 114z"/>
<path d="M4414 6889 c-69 -19 -102 -97 -66 -160 10 -19 40 -74 67 -124 26 -49
56 -102 67 -117 10 -14 18 -33 18 -42 0 -9 4 -16 10 -16 5 0 12 -11 16 -25 3
-14 10 -25 15 -25 5 0 9 -5 9 -11 0 -6 9 -24 21 -40 11 -16 17 -29 14 -29 -3
0 2 -12 13 -27 10 -16 38 -64 62 -108 24 -44 89 -161 144 -260 56 -99 108
-194 116 -210 8 -17 17 -32 21 -35 3 -3 13 -21 23 -40 10 -19 33 -62 51 -95
41 -73 48 -86 115 -205 29 -52 64 -115 78 -140 13 -25 37 -67 52 -95 42 -77
80 -145 114 -205 17 -30 38 -67 45 -82 8 -16 20 -28 26 -28 7 0 82 43 169 95
86 52 158 95 161 95 4 0 72 44 90 58 6 4 25 14 43 21 17 7 32 17 32 22 0 4 10
11 23 15 12 4 24 10 27 13 5 7 230 142 290 175 19 10 46 27 59 37 13 11 28 19
33 19 5 0 14 5 21 11 7 5 48 31 91 57 43 26 83 54 89 63 13 21 1 68 -21 76 -9
4 -19 9 -22 12 -8 10 -63 45 -92 60 -16 8 -28 18 -28 23 0 4 -7 8 -15 8 -8 0
-15 5 -15 10 0 6 -7 10 -15 10 -8 0 -15 5 -15 11 0 5 -4 8 -9 5 -5 -3 -11 1
-15 9 -3 8 -10 15 -15 15 -7 0 -497 318 -661 430 -20 14 -450 295 -580 380
-58 38 -111 74 -118 80 -7 7 -23 17 -35 24 -12 6 -110 69 -217 140 -221 146
-242 157 -286 145z"/>
<path d="M280 5023 c-41 -15 -40 10 -40 -1172 0 -625 4 -1141 8 -1147 14 -22
45 -32 66 -22 12 5 94 129 186 280 91 149 216 352 277 452 62 99 116 188 120
196 4 8 44 75 90 148 46 74 83 135 83 137 0 2 31 52 68 112 77 124 177 286
209 342 l22 38 -97 59 c-53 32 -101 61 -106 63 -6 2 -29 16 -51 30 -22 14 -49
30 -60 36 -44 25 -70 40 -75 45 -8 8 -678 410 -682 409 -1 0 -10 -3 -18 -6z"/>
<path d="M6705 5011 c-16 -10 -118 -71 -225 -136 -107 -65 -207 -125 -222
-134 -15 -9 -153 -92 -307 -185 l-281 -170 19 -30 c122 -204 207 -342 213
-344 5 -2 8 -7 8 -12 0 -8 59 -107 129 -215 14 -22 26 -42 26 -45 0 -3 8 -16
17 -30 59 -91 168 -273 168 -281 0 -5 5 -9 10 -9 6 0 10 -4 10 -9 0 -9 58
-109 70 -121 7 -7 29 -43 37 -60 4 -8 26 -45 50 -83 24 -37 43 -71 43 -76 0
-4 9 -16 20 -26 11 -10 18 -20 15 -23 -3 -3 1 -12 8 -21 12 -14 86 -131 127
-202 52 -89 67 -109 86 -117 21 -10 52 0 66 22 4 6 8 522 8 1146 0 624 -4
1140 -8 1146 -6 10 -47 35 -54 33 -2 0 -16 -8 -33 -18z"/>
<path d="M2172 4182 l-23 -4 32 -56 c37 -66 61 -108 89 -157 11 -19 29 -51 40
-70 11 -19 29 -52 41 -72 12 -21 80 -141 152 -268 72 -126 175 -309 229 -405
54 -96 103 -182 108 -190 5 -8 31 -53 57 -100 26 -47 53 -94 60 -105 6 -11 20
-36 31 -55 10 -19 65 -116 122 -215 57 -99 114 -200 128 -225 14 -25 58 -103
98 -173 41 -71 74 -133 74 -138 0 -5 4 -9 9 -9 5 0 11 -6 13 -12 5 -22 82
-158 88 -158 4 0 14 15 23 33 9 17 30 55 47 82 17 28 34 59 39 70 5 11 35 65
68 120 32 55 60 103 61 108 1 4 9 18 17 32 8 14 22 36 30 50 8 14 14 26 13 27
-2 2 7 17 18 33 18 26 41 65 98 170 6 11 13 22 16 25 3 3 13 21 24 40 28 52
64 117 106 190 21 36 48 83 60 105 12 22 52 92 88 155 36 63 73 129 82 145 9
17 46 82 82 145 66 116 92 162 133 235 13 22 58 101 100 175 94 164 111 194
138 245 12 22 24 42 27 45 3 3 10 14 16 25 6 11 28 50 48 87 l37 67 -317 3
c-174 2 -321 0 -327 -4 -6 -4 -20 -2 -30 4 -11 5 -23 6 -28 1 -4 -4 -45 -6
-89 -3 -45 3 -87 2 -93 -2 -6 -4 -20 -2 -30 4 -11 5 -23 6 -28 1 -4 -4 -153
-6 -329 -3 -177 3 -327 2 -333 -2 -6 -4 -20 -2 -30 4 -11 5 -23 6 -28 1 -4 -4
-45 -6 -89 -3 -45 3 -87 2 -93 -2 -6 -4 -20 -2 -30 4 -11 5 -23 6 -28 1 -4 -4
-117 -6 -249 -3 -133 3 -247 2 -253 -2 -6 -4 -20 -2 -30 4 -11 5 -23 6 -28 1
-4 -4 -44 -6 -89 -3 -44 3 -89 2 -98 -1 -9 -4 -24 -3 -32 0 -8 4 -25 5 -38 3z"/>
<path d="M1645 4004 c-28 -42 -54 -83 -60 -92 -5 -9 -12 -19 -16 -22 -5 -5
-146 -215 -179 -266 -57 -89 -316 -470 -322 -472 -5 -2 -8 -9 -8 -16 0 -7 -8
-21 -19 -32 -10 -11 -24 -31 -31 -44 -7 -13 -17 -29 -22 -34 -22 -27 -228
-339 -228 -346 0 -5 -4 -10 -8 -12 -10 -4 -122 -167 -122 -178 0 -5 -3 -10 -7
-12 -5 -1 -62 -84 -128 -183 -66 -99 -123 -181 -127 -183 -5 -2 -8 -7 -8 -12
0 -4 -27 -48 -61 -96 -53 -79 -60 -93 -56 -128 5 -39 35 -90 56 -92 6 -1 12
-3 14 -4 3 -4 37 -9 97 -14 30 -3 71 -7 90 -10 45 -7 144 -17 285 -30 28 -3
68 -7 90 -10 50 -6 112 -13 190 -21 69 -7 137 -14 180 -20 17 -2 57 -7 90 -10
100 -9 168 -16 200 -20 17 -2 80 -9 140 -15 131 -13 172 -17 245 -26 70 -8 90
-10 175 -18 39 -4 90 -9 114 -13 25 -3 63 -7 85 -9 111 -10 211 -21 211 -24 0
0 27 -3 60 -5 33 -3 78 -7 100 -9 22 -3 67 -7 100 -11 33 -3 78 -8 100 -11 22
-3 60 -7 85 -10 59 -6 113 -12 178 -20 28 -3 52 -4 52 -1 0 2 -29 55 -65 116
-36 62 -65 114 -65 116 0 2 -14 28 -31 57 -18 29 -43 73 -57 98 -14 25 -87
153 -162 285 -75 132 -149 261 -163 288 -78 138 -176 310 -187 327 -6 8 -13
22 -17 30 -4 8 -53 96 -110 194 -57 99 -103 181 -103 183 0 2 -10 20 -23 41
-13 20 -37 62 -54 92 -16 30 -58 105 -93 165 -34 61 -74 130 -88 155 -13 25
-40 70 -58 101 -19 31 -34 62 -34 68 0 6 -4 11 -10 11 -5 0 -10 5 -10 11 0 9
-78 149 -110 199 -6 8 -14 25 -19 37 -6 11 -14 23 -18 26 -5 3 -31 -28 -58
-69z"/>
<path d="M5302 4013 c-21 -37 -78 -135 -125 -218 -47 -82 -95 -166 -106 -185
-11 -19 -26 -46 -33 -60 -7 -14 -22 -41 -34 -60 -11 -19 -32 -55 -46 -80 -14
-25 -62 -110 -108 -190 -45 -80 -98 -174 -118 -210 -19 -36 -43 -77 -54 -92
-10 -14 -18 -29 -18 -31 0 -3 -25 -48 -55 -100 -30 -51 -55 -99 -55 -105 0 -7
-3 -12 -7 -12 -5 0 -21 -26 -38 -58 -16 -31 -32 -59 -35 -62 -3 -3 -11 -16
-18 -30 -6 -14 -16 -32 -22 -40 -5 -8 -70 -123 -145 -255 -74 -132 -139 -247
-145 -255 -5 -8 -17 -31 -27 -50 -9 -19 -20 -37 -23 -40 -4 -3 -13 -20 -21
-37 -8 -18 -17 -33 -20 -33 -4 0 -12 -12 -18 -27 -6 -16 -15 -35 -20 -43 -17
-25 -151 -262 -151 -266 0 -4 70 2 235 21 28 3 73 8 100 11 28 3 66 7 85 9 19
2 64 7 100 10 36 3 81 8 100 10 45 6 99 12 175 20 33 3 71 8 85 10 14 2 57 6
95 9 39 4 86 8 105 11 19 2 60 7 90 10 30 3 69 7 85 9 17 2 62 7 100 10 39 4
86 9 105 11 19 3 58 7 85 10 28 2 73 7 100 10 62 8 114 13 185 20 117 11 136
13 180 19 25 3 70 8 100 11 30 3 69 7 85 9 17 2 62 7 100 11 39 4 84 9 100 11
17 1 57 5 90 8 58 6 76 8 194 21 30 4 77 8 105 11 112 10 155 45 152 119 -2
34 -28 79 -167 285 -90 135 -166 247 -169 250 -3 3 -25 37 -50 75 -25 39 -47
72 -50 75 -3 3 -27 39 -55 80 -27 41 -55 81 -62 88 -6 6 -15 21 -18 32 -3 11
-10 20 -15 20 -5 0 -12 10 -15 23 -4 12 -15 31 -25 42 -15 18 -410 601 -435
642 -5 10 -15 23 -22 30 -6 7 -15 22 -18 33 -3 11 -11 20 -16 20 -5 0 -9 6 -9
14 0 8 -3 16 -8 18 -4 2 -48 64 -97 138 -50 74 -120 179 -157 233 l-66 98 -40
-68z"/>
<path d="M483 1314 c-7 -3 -13 -12 -13 -20 0 -8 -5 -14 -10 -14 -7 0 -7 -6 -1
-19 6 -10 8 -21 5 -23 -6 -7 62 -40 281 -138 28 -13 79 -36 115 -52 36 -16 81
-37 100 -45 19 -9 67 -31 105 -48 39 -18 86 -39 105 -48 19 -8 75 -34 123 -56
49 -23 90 -41 93 -41 2 0 48 -21 101 -46 97 -46 177 -82 191 -85 4 -2 32 -15
62 -29 30 -15 73 -35 95 -45 22 -10 77 -35 123 -56 46 -22 85 -39 88 -39 2 0
44 -19 92 -41 48 -23 125 -58 172 -79 47 -21 117 -52 155 -70 39 -18 140 -64
225 -102 85 -39 175 -79 200 -91 25 -11 88 -40 140 -65 52 -24 100 -45 107
-46 7 -1 16 -5 19 -9 11 -10 44 -8 81 5 63 23 63 26 66 537 l2 460 -30 5 c-16
3 -55 8 -85 11 -30 4 -69 8 -86 10 -16 2 -59 7 -95 10 -35 4 -75 8 -89 11 -14
2 -54 7 -90 10 -36 3 -78 7 -95 10 -53 7 -109 13 -172 19 -34 3 -72 8 -85 10
-13 2 -54 7 -93 10 -74 8 -83 9 -185 20 -36 4 -76 8 -90 10 -14 1 -54 6 -90
10 -36 4 -76 9 -90 10 -14 2 -52 6 -85 9 -33 4 -82 9 -110 11 -27 3 -66 8 -85
10 -19 3 -57 7 -85 10 -27 2 -68 6 -90 9 -38 5 -76 9 -195 22 -30 3 -68 7 -85
9 -16 2 -52 6 -80 9 -27 3 -75 9 -105 12 -30 4 -68 8 -85 9 -16 2 -50 5 -75 9
-25 3 -70 8 -100 11 -30 3 -68 7 -85 9 -68 9 -171 15 -182 10z"/>
<path d="M6445 1312 c-2 -2 -25 -5 -52 -7 -26 -2 -66 -6 -88 -9 -22 -3 -69 -8
-105 -11 -35 -3 -76 -7 -90 -10 -14 -2 -54 -6 -90 -10 -36 -4 -76 -8 -90 -10
-14 -2 -52 -7 -85 -10 -33 -3 -73 -8 -90 -10 -16 -2 -57 -7 -90 -10 -33 -3
-76 -8 -95 -10 -19 -2 -62 -7 -95 -10 -33 -3 -73 -7 -90 -9 -16 -3 -75 -9
-130 -15 -55 -6 -118 -14 -140 -16 -22 -2 -67 -7 -100 -10 -33 -3 -76 -8 -96
-11 -36 -5 -92 -11 -174 -19 -22 -2 -67 -7 -100 -11 -33 -4 -75 -8 -92 -8 -18
-1 -33 -3 -33 -6 0 -3 -12 -5 -27 -6 -26 0 -102 -8 -198 -19 -46 -5 -107 -12
-185 -20 -30 -3 -71 -8 -90 -11 -19 -3 -57 -7 -85 -9 -27 -3 -72 -8 -100 -11
-27 -4 -60 -6 -72 -5 -26 1 -23 58 -24 -494 0 -498 -3 -450 29 -485 38 -43 83
-48 152 -17 30 14 154 70 275 125 121 55 245 111 275 125 30 14 120 54 200 90
80 36 172 78 205 93 33 16 62 29 65 30 3 0 30 12 60 26 31 14 227 103 435 198
209 95 414 188 455 207 70 33 118 54 130 58 7 2 82 37 183 84 49 22 90 41 92
41 2 0 50 22 107 49 57 26 114 52 128 56 48 15 66 68 32 98 -15 14 -105 21
-117 9z"/>
</g>
</svg>
