<?xml version="1.0" standalone="no"?>
<!DOCTYPE svg PUBLIC "-//W3C//DTD SVG 20010904//EN"
 "http://www.w3.org/TR/2001/REC-SVG-20010904/DTD/svg10.dtd">
<svg version="1.0" xmlns="http://www.w3.org/2000/svg"
 width="107.000000pt" height="107.000000pt" viewBox="0 0 107.000000 107.000000"
 preserveAspectRatio="xMidYMid meet">
<metadata>
Created by potrace 1.11, written by Peter Selinger 2001-2013
</metadata>
<g transform="translate(0.000000,107.000000) scale(0.100000,-0.100000)"
fill="#000000" stroke="none">
<path d="M458 1056 c-72 -31 -120 -104 -120 -180 1 -76 46 -145 117 -177 125
-57 269 39 267 178 -1 53 -34 124 -70 150 -57 41 -139 54 -194 29z m136 -111
c14 -13 27 -29 27 -35 8 -65 -3 -96 -42 -116 -16 -8 -41 -14 -57 -14 -33 0
-81 39 -84 67 0 10 -2 25 -3 33 -1 8 3 24 8 35 27 58 104 73 151 30z"/>
<path d="M115 712 c-99 -48 -141 -159 -96 -257 84 -183 349 -133 365 69 3 49
-18 110 -53 147 -50 54 -149 73 -216 41z m142 -106 c23 -20 28 -32 28 -71 0
-39 -5 -51 -28 -71 -79 -67 -195 22 -150 115 27 54 102 68 150 27z"/>
<path d="M810 723 c-45 -16 -95 -62 -115 -106 -76 -162 90 -332 250 -258 117
54 151 203 68 302 -46 54 -143 84 -203 62z m104 -104 c28 -13 51 -60 48 -98
-3 -39 -50 -81 -90 -81 -44 0 -68 14 -88 52 -44 84 41 167 130 127z"/>
<path d="M466 375 c-76 -27 -126 -98 -126 -179 0 -192 242 -266 351 -108 15
23 24 52 27 90 6 92 -32 156 -112 193 -48 22 -87 23 -140 4z m127 -110 c25
-24 30 -34 30 -70 0 -37 -5 -47 -29 -70 -50 -46 -129 -27 -153 37 -34 90 81
168 152 103z"/>
</g>
</svg>
